<svg xmlns="http://www.w3.org/2000/svg" width="1200" height="1000" viewBox="0 0 120 100"><rect width="120" height="100" rx="5" fill="#0b0613"/><path d="M29 23 L48 17 L55 28 L35 35 Z M48 38 L70 31 L77 42 L55 49 Z M68 53 L91 46 L98 57 L75 64 Z" fill="#ff3b8d" fill-opacity=".72" stroke="#fff" stroke-width=".7"/><text x="40" y="27" text-anchor="middle" dominant-baseline="middle" fill="#fff" font-family="Inter,Arial" font-size="3.5" font-weight="900">A</text><path d="M35 36 L55 29 L62 40 L42 47 Z M55 51 L77 44 L84 55 L62 62 Z M75 66 L98 59 L105 70 L82 77 Z" fill="#ffb000" fill-opacity=".72" stroke="#fff" stroke-width=".7"/><text x="49" y="39" text-anchor="middle" dominant-baseline="middle" fill="#171225" font-family="Inter,Arial" font-size="3.5" font-weight="900">B</text><path d="M42 49 L62 42 L69 53 L49 60 Z M62 64 L84 57 L91 68 L69 75 Z M82 79 L106 72 L113 83 L89 90 Z" fill="#8d3cff" fill-opacity=".72" stroke="#fff" stroke-width=".7"/><text x="56" y="52" text-anchor="middle" dominant-baseline="middle" fill="#171225" font-family="Inter,Arial" font-size="3.5" font-weight="900">C</text><path d="M49 62 L69 55 L76 66 L56 73 Z M69 77 L91 70 L98 81 L76 88 Z M39 64 L48 61 L55 73 L46 77 Z M59 79 L68 76 L75 88 L66 92 Z" fill="#19c7dd" fill-opacity=".72" stroke="#fff" stroke-width=".7"/><text x="64" y="69" text-anchor="middle" dominant-baseline="middle" fill="#fff" font-family="Inter,Arial" font-size="3.5" font-weight="900">D–F</text><path d="M5 7 L39 7 L31 20 L5 27 Z" fill="#17121e" stroke="#ffb000" stroke-width=".9"/><text x="19" y="15" text-anchor="middle" dominant-baseline="middle" fill="#fff" font-family="Inter,Arial" font-size="3.5" font-weight="900">STAGE</text><rect x="61" y="92" width="55" height="5" rx="2.5" fill="#ffb000"/><text x="88.5" y="95.3" text-anchor="middle" fill="#171225" font-family="Inter,Arial" font-size="2.15" font-weight="900">SWEET SPOT · Category B + Category C</text></svg>