<svg xmlns="http://www.w3.org/2000/svg" width="1200" height="1000" viewBox="0 0 120 100"><rect width="120" height="100" rx="5" fill="#0d0815"/><rect x="2" y="2" width="116" height="96" rx="4" fill="none" stroke="#2d1c42" stroke-width=".5"/><defs><clipPath id="clip-vip"><path d="M28 24 Q60 15 92 24 L87 42 Q60 34 33 42 Z"/></clipPath><clipPath id="clip-preferred"><path d="M20 43 Q60 32 100 43 L94 67 Q60 57 26 67 Z"/></clipPath><clipPath id="clip-ga"><path d="M13 69 Q60 56 107 69 L102 92 Q60 83 18 92 Z"/></clipPath></defs><path d="M28 24 Q60 15 92 24 L87 42 Q60 34 33 42 Z" fill="#ff3b8d" fill-opacity=".28" stroke="rgba(255,255,255,.5)" stroke-width=".55"/><path d="M8 25 Q60 23 112 25" clip-path="url(#clip-vip)" fill="none" stroke="rgba(255,255,255,.28)" stroke-width=".35"/><path d="M8 30 Q60 28 112 30" clip-path="url(#clip-vip)" fill="none" stroke="rgba(255,255,255,.28)" stroke-width=".35"/><path d="M8 35 Q60 33 112 35" clip-path="url(#clip-vip)" fill="none" stroke="rgba(255,255,255,.28)" stroke-width=".35"/><path d="M8 40 Q60 38 112 40" clip-path="url(#clip-vip)" fill="none" stroke="rgba(255,255,255,.28)" stroke-width=".35"/><text x="60" y="28" text-anchor="middle" dominant-baseline="middle" fill="#fff" stroke="#0d0815" stroke-width=".45" paint-order="stroke" font-family="Inter,Arial" font-size="3.15" font-weight="800">VIP</text><path d="M20 43 Q60 32 100 43 L94 67 Q60 57 26 67 Z" fill="#ffb000" fill-opacity=".28" stroke="rgba(255,255,255,.5)" stroke-width=".55"/><path d="M8 45 Q60 43 112 45" clip-path="url(#clip-preferred)" fill="none" stroke="rgba(255,255,255,.28)" stroke-width=".35"/><path d="M8 51 Q60 49 112 51" clip-path="url(#clip-preferred)" fill="none" stroke="rgba(255,255,255,.28)" stroke-width=".35"/><path d="M8 57 Q60 55 112 57" clip-path="url(#clip-preferred)" fill="none" stroke="rgba(255,255,255,.28)" stroke-width=".35"/><path d="M8 63 Q60 61 112 63" clip-path="url(#clip-preferred)" fill="none" stroke="rgba(255,255,255,.28)" stroke-width=".35"/><text x="60" y="50" text-anchor="middle" dominant-baseline="middle" fill="#171225" stroke="#0d0815" stroke-width=".45" paint-order="stroke" font-family="Inter,Arial" font-size="3.15" font-weight="800">PREFERRED</text><path d="M13 69 Q60 56 107 69 L102 92 Q60 83 18 92 Z" fill="#16b9c8" fill-opacity=".28" stroke="rgba(255,255,255,.5)" stroke-width=".55"/><path d="M8 71 Q60 69 112 71" clip-path="url(#clip-ga)" fill="none" stroke="rgba(255,255,255,.28)" stroke-width=".35"/><path d="M8 77 Q60 75 112 77" clip-path="url(#clip-ga)" fill="none" stroke="rgba(255,255,255,.28)" stroke-width=".35"/><path d="M8 83 Q60 81 112 83" clip-path="url(#clip-ga)" fill="none" stroke="rgba(255,255,255,.28)" stroke-width=".35"/><path d="M8 89 Q60 87 112 89" clip-path="url(#clip-ga)" fill="none" stroke="rgba(255,255,255,.28)" stroke-width=".35"/><text x="60" y="77" text-anchor="middle" dominant-baseline="middle" fill="#fff" stroke="#0d0815" stroke-width=".45" paint-order="stroke" font-family="Inter,Arial" font-size="3.15" font-weight="800">GENERAL ADMISSION</text><path d="M39 5 Q60 1 81 5 L78 18 Q60 15 42 18 Z" fill="#17121e" stroke="#ffb000" stroke-width=".7"/><text x="60" y="10" text-anchor="middle" dominant-baseline="middle" fill="#fff" font-family="Inter,Arial" font-size="4" font-weight="900">STAGE</text><text x="6" y="97" fill="#d9c9e8" font-family="Inter,Arial" font-size="2.8" font-weight="800">Comedy Cellar at Rio</text><rect x="80" y="93" width="34" height="4" rx="2" fill="#ffb000"/><text x="97" y="95.7" text-anchor="middle" fill="#171225" font-family="Inter,Arial" font-size="2.1" font-weight="900">OUR PICK · SWEET SPOT</text></svg>