<svg xmlns="http://www.w3.org/2000/svg" width="1200" height="956" viewBox="0 0 108 86"><rect width="108" height="86" rx="4" fill="#09060f"/><rect x="2" y="26" width="7" height="34" rx="1" fill="#171717"/><text x="5.5" y="43" transform="rotate(-90 5.5 43)" text-anchor="middle" fill="#fff" font-family="Arial" font-weight="900" font-size="4.2">STAGE</text><polygon points="16,11 39,3 49,23 24,30 14,22" fill="#ffb000" stroke="#fff" stroke-opacity=".42" stroke-width=".55"/><polygon points="14,30 49,23 49,54 18,48" fill="#ffb000" stroke="#fff" stroke-opacity=".42" stroke-width=".55"/><polygon points="18,48 49,54 43,79 23,72 14,60" fill="#ffb000" stroke="#fff" stroke-opacity=".42" stroke-width=".55"/><polygon points="44,3 72,3 78,23 51,30 49,16" fill="#ffb000" stroke="#fff" stroke-opacity=".42" stroke-width=".55"/><polygon points="51,30 78,23 82,54 51,54" fill="#ffb000" stroke="#fff" stroke-opacity=".42" stroke-width=".55"/><polygon points="51,54 82,54 74,79 45,80" fill="#ffb000" stroke="#fff" stroke-opacity=".42" stroke-width=".55"/><polygon points="73,5 96,8 99,27 80,33" fill="#0fb5c9" stroke="#fff" stroke-opacity=".42" stroke-width=".55"/><polygon points="80,33 99,27 99,59 84,56" fill="#0fb5c9" stroke="#fff" stroke-opacity=".42" stroke-width=".55"/><polygon points="84,56 99,59 95,78 75,80" fill="#0fb5c9" stroke="#fff" stroke-opacity=".42" stroke-width=".55"/><polygon points="8,19 17,12 19,25 10,30" fill="#f43f8c" stroke="#fff" stroke-opacity=".42" stroke-width=".55"/><polygon points="8,30 19,25 20,47 8,43" fill="#f43f8c" stroke="#fff" stroke-opacity=".42" stroke-width=".55"/><polygon points="8,43 20,47 18,61 9,57" fill="#f43f8c" stroke="#fff" stroke-opacity=".42" stroke-width=".55"/><polygon points="47,20 52,20 52,59 47,59" fill="#7c3aed" stroke="#fff" stroke-opacity=".42" stroke-width=".55"/><text x="28.4" y="17.8" text-anchor="middle" dominant-baseline="middle" fill="#171225" font-family="Arial" font-weight="800" font-size="4">3</text><text x="32.5" y="38.8" text-anchor="middle" dominant-baseline="middle" fill="#171225" font-family="Arial" font-weight="800" font-size="4">2</text><text x="29.4" y="62.6" text-anchor="middle" dominant-baseline="middle" fill="#171225" font-family="Arial" font-weight="800" font-size="4">1</text><text x="58.8" y="15.0" text-anchor="middle" dominant-baseline="middle" fill="#171225" font-family="Arial" font-weight="800" font-size="4">6</text><text x="65.5" y="40.2" text-anchor="middle" dominant-baseline="middle" fill="#171225" font-family="Arial" font-weight="800" font-size="4">5</text><text x="63.0" y="66.8" text-anchor="middle" dominant-baseline="middle" fill="#171225" font-family="Arial" font-weight="800" font-size="4">4</text><text x="87.0" y="18.2" text-anchor="middle" dominant-baseline="middle" fill="#fff" font-family="Arial" font-weight="800" font-size="4">9</text><text x="90.5" y="43.8" text-anchor="middle" dominant-baseline="middle" fill="#fff" font-family="Arial" font-weight="800" font-size="4">8</text><text x="88.2" y="68.2" text-anchor="middle" dominant-baseline="middle" fill="#fff" font-family="Arial" font-weight="800" font-size="4">7</text><text x="13" y="21" fill="#fff" font-family="Arial" font-weight="800" font-size="2.6">AMP 3</text><text x="13" y="36" fill="#fff" font-family="Arial" font-weight="800" font-size="2.6">AMP 2</text><text x="13" y="52" fill="#fff" font-family="Arial" font-weight="800" font-size="2.6">AMP 1</text><text x="49.5" y="42" transform="rotate(90 49.5 42)" text-anchor="middle" fill="#fff" font-family="Arial" font-weight="800" font-size="2.8">BOOTHS</text><rect x="55" y="35" width="26" height="8" rx="3" fill="#171225"/><text x="68" y="38.5" text-anchor="middle" fill="#ffb000" font-family="Arial" font-weight="800" font-size="2.2"><tspan x="68">SECTIONS 1–6</tspan><tspan x="68" dy="2.5">SWEET SPOT / OUR PICK</tspan></text><text x="54" y="7" text-anchor="middle" fill="#fff" font-family="Arial" font-weight="800" font-size="3.5">Penn &amp; Teller Theater · Rio Las Vegas</text></svg>