<svg xmlns="http://www.w3.org/2000/svg" width="1200" height="1000" viewBox="0 0 120 105"><rect width="120" height="110" rx="5" fill="#0d0815"/><text x="6" y="107" fill="#fff" font-family="Inter,Arial" font-size="3.1" font-weight="800">Bugsy&#x27;s Cabaret</text><clipPath id="c-ga-left"><path d="M4 25 L31 8 L43 24 L29 73 L8 62 Z"/></clipPath><path d="M4 25 L31 8 L43 24 L29 73 L8 62 Z" fill="#16b9c8" stroke="rgba(255,255,255,.75)" stroke-width=".7"/><text x="21" y="40" text-anchor="middle" dominant-baseline="middle" fill="#fff" font-family="Inter,Arial" font-size="3.6" font-weight="800">General Admission · Left</text><clipPath id="c-pink2"><path d="M31 67 L42 72 L51 60 L47 28 L40 31 Z"/></clipPath><path d="M31 67 L42 72 L51 60 L47 28 L40 31 Z" fill="#ffb000" stroke="rgba(255,255,255,.75)" stroke-width=".7"/><text x="42" y="52" text-anchor="middle" dominant-baseline="middle" fill="#171225" font-family="Inter,Arial" font-size="3.6" font-weight="800">Pink Circle 2</text><clipPath id="c-vip1"><path d="M27 72 L34 75 L42 68 L38 58 Z"/></clipPath><path d="M27 72 L34 75 L42 68 L38 58 Z" fill="#ff3b8d" stroke="rgba(255,255,255,.75)" stroke-width=".7"/><text x="34" y="68" text-anchor="middle" dominant-baseline="middle" fill="#fff" font-family="Inter,Arial" font-size="3.6" font-weight="800">VIP 1</text><clipPath id="c-vip2"><path d="M35 50 L41 54 L46 42 L43 35 Z"/></clipPath><path d="M35 50 L41 54 L46 42 L43 35 Z" fill="#ff3b8d" stroke="rgba(255,255,255,.75)" stroke-width=".7"/><text x="41" y="45" text-anchor="middle" dominant-baseline="middle" fill="#fff" font-family="Inter,Arial" font-size="3.6" font-weight="800">VIP 2</text><clipPath id="c-pink3"><path d="M45 21 Q60 15 75 21 L70 36 H50 Z"/></clipPath><path d="M45 21 Q60 15 75 21 L70 36 H50 Z" fill="#ffb000" stroke="rgba(255,255,255,.75)" stroke-width=".7"/><text x="60" y="26" text-anchor="middle" dominant-baseline="middle" fill="#171225" font-family="Inter,Arial" font-size="3.6" font-weight="800">Pink Circle 3</text><clipPath id="c-vip3"><path d="M48 10 Q60 6 72 10 L74 20 Q60 16 46 20 Z"/></clipPath><path d="M48 10 Q60 6 72 10 L74 20 Q60 16 46 20 Z" fill="#ff3b8d" stroke="rgba(255,255,255,.75)" stroke-width=".7"/><text x="60" y="14" text-anchor="middle" dominant-baseline="middle" fill="#fff" font-family="Inter,Arial" font-size="3.6" font-weight="800">VIP 3</text><clipPath id="c-pink4"><path d="M69 60 L78 72 L89 67 L80 31 L73 28 Z"/></clipPath><path d="M69 60 L78 72 L89 67 L80 31 L73 28 Z" fill="#ffb000" stroke="rgba(255,255,255,.75)" stroke-width=".7"/><text x="78" y="52" text-anchor="middle" dominant-baseline="middle" fill="#171225" font-family="Inter,Arial" font-size="3.6" font-weight="800">Pink Circle 4</text><clipPath id="c-vip4"><path d="M74 42 L79 54 L85 50 L77 35 Z"/></clipPath><path d="M74 42 L79 54 L85 50 L77 35 Z" fill="#ff3b8d" stroke="rgba(255,255,255,.75)" stroke-width=".7"/><text x="79" y="45" text-anchor="middle" dominant-baseline="middle" fill="#fff" font-family="Inter,Arial" font-size="3.6" font-weight="800">VIP 4</text><clipPath id="c-vip5"><path d="M78 68 L86 75 L93 72 L82 58 Z"/></clipPath><path d="M78 68 L86 75 L93 72 L82 58 Z" fill="#ff3b8d" stroke="rgba(255,255,255,.75)" stroke-width=".7"/><text x="86" y="68" text-anchor="middle" dominant-baseline="middle" fill="#fff" font-family="Inter,Arial" font-size="3.6" font-weight="800">VIP 5</text><clipPath id="c-ga-right"><path d="M116 25 L89 8 L77 24 L91 73 L112 62 Z"/></clipPath><path d="M116 25 L89 8 L77 24 L91 73 L112 62 Z" fill="#16b9c8" stroke="rgba(255,255,255,.75)" stroke-width=".7"/><text x="99" y="40" text-anchor="middle" dominant-baseline="middle" fill="#fff" font-family="Inter,Arial" font-size="3.6" font-weight="800">General Admission · Right</text><path d="M51 37 H69 V61 H51 Z" fill="#25163a" stroke="#ba8cff" stroke-width=".55"/><text x="60" y="50" text-anchor="middle" fill="#dcc8ff" font-size="3">POLE</text><path d="M37 82 L83 82 L94 93 L82 102 H38 L26 93 Z" fill="#17121e" stroke="#ffb000" stroke-width=".7"/><text x="60" y="93" text-anchor="middle" dominant-baseline="middle" fill="#fff" font-family="Inter,Arial" font-size="4" font-weight="900">STAGE</text><rect x="79" y="103" width="35" height="4" rx="2" fill="#ffb000"/><text x="96.5" y="105.7" text-anchor="middle" fill="#171225" font-family="Inter,Arial" font-size="2.3" font-weight="900">OUR PICK · SWEET SPOT</text></svg>