<svg xmlns="http://www.w3.org/2000/svg" width="1200" height="1140" viewBox="0 0 800 760" role="img" aria-labelledby="t d"><title id="t">Mat Franco Theater seating chart</title><desc id="d">Vegas Sidekick seating chart for Mat Franco Theater at The LINQ, showing Premium, Preferred and Reserved seating. Preferred is the Sweet Spot recommendation.</desc><rect width="800" height="760" rx="34" fill="#12061f"/><text x="400" y="30" text-anchor="middle" fill="#d9cbea" font-family="Inter,sans-serif" font-size="14">MAT FRANCO THEATER · THE LINQ</text><path d="M170 42 H630 V105 H170 Z" fill="#171225" stroke="#6b5b80" stroke-width="3"/><text x="400" y="82" text-anchor="middle" fill="#fff" font-family="Plus Jakarta Sans,Arial" font-weight="800" font-size="24" letter-spacing="4">STAGE</text><g font-family="Plus Jakarta Sans,Arial" font-weight="800" text-anchor="middle" fill="#fff"><path d="M145 145 Q250 125 382 138 L382 250 Q250 236 112 270 Z" fill="#ff2e7e" stroke="#ffffff33" stroke-width="3"/><path d="M418 138 Q550 125 655 145 L688 270 Q550 236 418 250 Z" fill="#ff2e7e" stroke="#ffffff33" stroke-width="3"/><text x="245" y="205" font-size="20">PREMIUM</text><text x="555" y="205" font-size="20">PREMIUM</text><path d="M112 292 Q245 258 382 272 L382 485 Q235 470 76 520 Z" fill="#7c3aed" stroke="#FFB000" stroke-width="5"/><path d="M418 272 Q555 258 688 292 L724 520 Q565 470 418 485 Z" fill="#7c3aed" stroke="#FFB000" stroke-width="5"/><text x="245" y="385" font-size="20">PREFERRED</text><text x="555" y="385" font-size="20">PREFERRED</text><text x="400" y="455" fill="#FFB000" font-size="15">SWEET SPOT / OUR PICK</text><path d="M76 542 Q235 490 382 508 L382 690 Q220 675 42 728 Z" fill="#0fb5c9" stroke="#ffffff33" stroke-width="3"/><path d="M418 508 Q565 490 724 542 L758 728 Q580 675 418 690 Z" fill="#0fb5c9" stroke="#ffffff33" stroke-width="3"/><text x="245" y="615" font-size="20">RESERVED</text><text x="555" y="615" font-size="20">RESERVED</text></g><text x="400" y="744" text-anchor="middle" fill="#cfc4da" font-family="Inter,sans-serif" font-size="12">3535 S Las Vegas Blvd · Las Vegas, NV 89109</text></svg>