<svg xmlns="http://www.w3.org/2000/svg" width="1200" height="1000" viewBox="0 0 120 100"><rect width="120" height="108" rx="5" fill="#0d0815"/><path d="M25 68 Q60 76 95 68 L89 84 Q60 90 31 84 Z" fill="#ff3b8d" stroke="rgba(255,255,255,.76)" stroke-width=".65"/><text x="60" y="78" text-anchor="middle" dominant-baseline="middle" fill="#fff" font-family="Inter,Arial" font-size="3.35" font-weight="900">1</text><path d="M17 38 Q60 51 103 38 L96 66 Q60 76 24 66 Z" fill="#ffb000" stroke="rgba(255,255,255,.76)" stroke-width=".65"/><text x="60" y="56" text-anchor="middle" dominant-baseline="middle" fill="#171225" font-family="Inter,Arial" font-size="3.35" font-weight="900">2</text><path d="M12 24 Q60 37 108 24 L104 36 Q60 49 16 36 Z" fill="#7b35ea" stroke="rgba(255,255,255,.76)" stroke-width=".65"/><text x="60" y="33" text-anchor="middle" dominant-baseline="middle" fill="#fff" font-family="Inter,Arial" font-size="3.35" font-weight="900">3</text><path d="M9 10 Q60 22 111 10 L109 22 Q60 35 11 22 Z" fill="#16b9c8" stroke="rgba(255,255,255,.76)" stroke-width=".65"/><text x="60" y="19" text-anchor="middle" dominant-baseline="middle" fill="#fff" font-family="Inter,Arial" font-size="3.35" font-weight="900">4</text><path d="M29 84 Q60 78 91 84 L86 97 H34 Z" fill="#17121e" stroke="#ffb000" stroke-width=".7"/><text x="60" y="90" text-anchor="middle" dominant-baseline="middle" fill="#fff" font-family="Inter,Arial" font-size="4" font-weight="900">STAGE</text><text x="6" y="102" fill="#fff" font-family="Inter,Arial" font-size="3" font-weight="800">Atrium Showroom · Luxor</text><rect x="78" y="98" width="36" height="4" rx="2" fill="#ffb000"/><text x="96" y="100.7" text-anchor="middle" fill="#171225" font-family="Inter,Arial" font-size="2.2" font-weight="900">OUR PICK · SWEET SPOT</text></svg>