<svg xmlns="http://www.w3.org/2000/svg" width="1200" height="1000" viewBox="0 0 120 100"><rect width="120" height="100" rx="5" fill="#0b0613"/><path d="M42 66 Q60 61 78 66 L76 82 Q60 78 44 82 Z M18 65 L38 61 L41 80 L23 84 Z M82 61 L102 65 L97 84 L79 80 Z" fill="#ff3b8d" fill-opacity=".72" stroke="#fff" stroke-width=".7"/><text x="60" y="72" text-anchor="middle" dominant-baseline="middle" fill="#fff" font-family="Inter,Arial" font-size="3.5" font-weight="900">VIP</text><path d="M38 45 Q60 39 82 45 L79 62 Q60 57 41 62 Z M12 45 L35 41 L38 59 L16 64 Z M85 41 L108 45 L104 64 L82 59 Z" fill="#ffb000" fill-opacity=".72" stroke="#fff" stroke-width=".7"/><text x="60" y="51" text-anchor="middle" dominant-baseline="middle" fill="#171225" font-family="Inter,Arial" font-size="3.5" font-weight="900">PREMIUM</text><path d="M34 24 Q60 16 86 24 L83 41 Q60 34 37 41 Z M8 25 L31 21 L34 39 L11 43 Z M89 21 L112 25 L109 43 L86 39 Z" fill="#8d3cff" fill-opacity=".72" stroke="#fff" stroke-width=".7"/><text x="60" y="29" text-anchor="middle" dominant-baseline="middle" fill="#fff" font-family="Inter,Arial" font-size="3.5" font-weight="900">GA</text><path d="M25 6 Q60 -1 95 6 L89 20 Q60 12 31 20 Z M4 7 H22 L28 21 L6 23 Z M98 7 H116 L114 23 L92 21 Z" fill="#19c7dd" fill-opacity=".72" stroke="#fff" stroke-width=".7"/><text x="60" y="9" text-anchor="middle" dominant-baseline="middle" fill="#fff" font-family="Inter,Arial" font-size="3.5" font-weight="900">GA REAR</text><path d="M36 88 Q60 80 84 88 L80 98 H40 Z" fill="#17121e" stroke="#ffb000" stroke-width=".9"/><text x="60" y="92" text-anchor="middle" dominant-baseline="middle" fill="#fff" font-family="Inter,Arial" font-size="3.5" font-weight="900">STAGE</text><rect x="61" y="92" width="55" height="5" rx="2.5" fill="#ffb000"/><text x="88.5" y="95.3" text-anchor="middle" fill="#171225" font-family="Inter,Arial" font-size="2.15" font-weight="900">SWEET SPOT · Premium</text></svg>